<?xml version="1.0" encoding="utf-8"?>
<!-- Generator: Adobe Illustrator 25.0.0, SVG Export Plug-In . SVG Version: 6.00 Build 0)  -->
<svg version="1.1" id="Layer_1" xmlns="http://www.w3.org/2000/svg" xmlns:xlink="http://www.w3.org/1999/xlink" x="0px" y="0px"
	 viewBox="0 0 1500 440" style="enable-background:new 0 0 1500 440;" xml:space="preserve">
<style type="text/css">
	.st0{fill:#209CDB;}
	.st1{fill:#FFFFFF;}
	.st2{fill-rule:evenodd;clip-rule:evenodd;fill:#209CDB;}
</style>
<rect width="1500" height="440"/>
<g>
	<path class="st0" d="M92.53,87.55c25.6-14.95,51.39-29.57,76.95-44.55c25.72,14.74,51.32,29.69,77.05,44.43
		c-0.01,18.82,0.13,37.65-0.07,56.47c-5.27-3.08-10.54-6.15-15.82-9.18c-0.01-12.73,0.05-25.48-0.04-38.21
		c-19.07-10.87-38.07-21.88-57.03-32.93c-1.34-0.71-2.68-1.49-4.16-1.88c-3.24,1.29-6.14,3.3-9.15,5.01
		c-17.24,10.09-34.68,19.85-51.85,30.04c0.04,12.67-0.04,25.33,0.03,38c-5.24,3.11-10.54,6.14-15.88,9.09
		C92.48,125.08,92.53,106.31,92.53,87.55z"/>
	<path class="st0" d="M167.05,111.03c1.46-1.07,3.19-1.35,4.73-0.2c39.66,22.97,79.38,45.85,119.09,68.74
		c1.1,0.97,3.28,1.43,3.18,3.26c0.51,8.81,0.03,17.64,0.21,26.46c18.34-0.03,36.69,0.07,55.04-0.05c3.53-5.27,10.44-9.05,16.53-5.58
		c8.1,3.73,8.36,16.67,0.32,20.6c-6.11,3.63-13.54,0.11-17-5.5c-37.17,0.01-74.35-0.12-111.52,0.07c-2.56,2.87-5.28,6.3-9.41,6.74
		c-5.95,1.14-12.24-3.03-13.36-8.99c-1.94-7.17,4.73-14.99,12.12-14.17c4.6-0.07,7.72,3.66,10.5,6.8
		c15.29,0.19,30.6,0.03,45.91,0.09c0.08-7.26,0.2-14.56-0.35-21.81c-37.97-21.62-75.64-43.79-113.63-65.4
		c-37.76,22.04-75.75,43.68-113.56,65.64c-0.05,43.86-0.08,87.72,0.01,131.56c37.92,21.71,75.72,43.62,113.54,65.49
		c38.01-21.53,75.64-43.74,113.61-65.34c0.68-13.82,0.58-27.68,0.07-41.5c-15.13,0.09-30.25-0.09-45.39,0.08
		c-2.86,3.16-5.98,7.01-10.71,6.86c-8.02,1.02-15-8.31-11.63-15.68c2-5.62,8.67-9.11,14.37-7.06c3.34,0.84,5.39,3.79,7.57,6.22
		c37.38,0.24,74.78,0.12,112.16,0.05c2.29-2.67,4.61-5.78,8.31-6.47c6.33-1.77,13.42,3,14.25,9.52c1.33,7.08-5.25,14.42-12.51,13.36
		c-4.61,0.12-7.71-3.65-10.39-6.82c-18.28-0.09-36.57-0.03-54.84-0.03c-0.12,15.8-0.08,31.61-0.04,47.4
		c-37.45,21.59-74.89,43.23-112.33,64.86c-4.14,2.27-7.99,5.19-12.47,6.78c-14.11-7.44-27.72-15.92-41.62-23.78
		c-27.59-15.88-55.12-31.87-82.76-47.69c-0.13-48.04-0.11-96.08-0.01-144.12C85.79,158.05,126.4,134.49,167.05,111.03z"/>
	<path class="st1" d="M247.85,234.84c6.07-3.9,13.47-0.27,17.05,5.24c37.22,0.16,74.46,0.07,111.68,0.04
		c2.83-3.39,6.3-7.14,11.17-6.82c6.74-0.44,12.6,6.21,11.69,12.83c-0.25,6.46-6.81,11.41-13.11,10.35
		c-4.29-0.17-7.04-3.86-9.69-6.73c-37.22-0.03-74.46-0.11-111.70,0.03c-3.54,5.25-10.37,8.94-16.49,5.63
		C240.32,251.77,239.95,238.95,247.85,234.84z"/>
	<g>
		<g>
			<path class="st0" d="M473.7,259.88h-25.86v-138.9h25.86V259.88z"/>
			<path class="st0" d="M669.23,259.88h-24.58V205.6c0-8.55-2.32-15.1-6.95-19.66c-4.63-4.56-11.51-6.84-20.62-6.84h-21.8v80.78
				h-24.58V179.1H522v80.78h-24.79V156.45h120.52c16.81,0,29.6,4.27,38.36,12.82c8.76,8.55,13.14,20.73,13.14,36.54V259.88z"/>
			<path class="st0" d="M862.42,259.88h-24.58V205.6c0-8.55-2.32-15.1-6.95-19.66c-4.63-4.56-11.51-6.84-20.62-6.84h-21.8v80.78
				H763.9V179.1h-48.72v80.78h-24.79V156.45h120.53c16.81,0,29.6,4.27,38.36,12.82c8.76,8.55,13.14,20.73,13.14,36.54V259.88z"/>
			<path class="st0" d="M953.45,259.88h-20.09c-16.96,0-29.81-4.24-38.57-12.72c-8.76-8.47-13.14-20.62-13.14-36.44v-54.28h24.79
				v54.28c0,8.55,2.35,15.1,7.05,19.66c4.7,4.56,11.54,6.84,20.52,6.84h18.81c9.12,0,15.99-2.28,20.62-6.84
				c4.63-4.56,6.95-11.11,6.95-19.66v-54.28h24.79v54.28c0,15.81-4.38,27.96-13.14,36.44C983.26,255.64,970.4,259.88,953.45,259.88z
				"/>
			<path class="st1" d="M1100.9,259.88h-25.86V145.76h-54.92v-24.79h135.49v24.79h-54.71V259.88z"/>
			<path class="st1" d="M1315.46,259.88h-27.99l-14.32-25.65h-78l11.33-20.94h54.92l-34.84-62.83l-60.69,109.41h-28.42l74.15-131.64
				c1.28-2.28,2.99-4.06,5.13-5.34c2.14-1.28,4.41-1.92,6.84-1.92h5.98c2.42,0,4.67,0.64,6.73,1.92c2.07,1.28,3.74,3.06,5.03,5.34
				L1315.46,259.88z"/>
			<path class="st1" d="M1455,259.88h-72.23c-9.97,0-19.34-1.67-28.1-5.02c-8.76-3.35-16.35-8.08-22.76-14.21
				c-6.41-6.12-11.4-13.53-14.96-22.22c-3.56-8.69-5.34-18.02-5.34-27.99c0-9.97,1.78-19.3,5.34-28c3.56-8.69,8.55-16.1,14.96-22.22
				c6.41-6.12,14-10.86,22.76-14.21c8.76-3.35,18.13-5.02,28.1-5.02H1455v24.79h-73.73c-6.13,0-11.9,1.07-17.31,3.21
				c-5.42,2.14-10.08,5.2-14,9.19c-3.92,3.99-6.98,8.76-9.19,14.32c-2.21,5.56-3.31,11.54-3.31,17.95c0,8.12,1.85,15.74,5.56,22.86
				c3.7,7.13,9.08,12.54,16.13,16.24c7.05,3.71,14.42,5.56,22.12,5.56h49.15v-35.05H1377V179.1h78V259.88z"/>
		</g>
		<g>
			<path class="st1" d="M451.34,319.02h-3.49v-24.69h3.49V319.02z"/>
			<path class="st1" d="M500.54,319.02h-3.49l-5.81-20.21l-6.19,18.88c-0.15,0.41-0.38,0.73-0.68,0.97
				c-0.3,0.24-0.66,0.36-1.06,0.36h-1.06c-0.4,0-0.77-0.12-1.08-0.36c-0.32-0.24-0.55-0.56-0.7-0.97l-6.16-18.99l-5.81,20.32h-3.49
				l6.5-23.14c0.25-1.04,0.86-1.56,1.82-1.56h1.41c0.4,0,0.77,0.12,1.08,0.36c0.32,0.24,0.55,0.58,0.7,1.01l6.27,19.45l6.27-19.45
				c0.28-0.91,0.86-1.37,1.75-1.37h1.41c0.96,0,1.57,0.52,1.82,1.56L500.54,319.02z"/>
			<path class="st1" d="M548.13,319.02h-3.49l-5.81-20.21l-6.19,18.88c-0.15,0.41-0.38,0.73-0.68,0.97
				c-0.3,0.24-0.66,0.36-1.06,0.36h-1.06c-0.4,0-0.77-0.12-1.08-0.36c-0.32-0.24-0.55-0.56-0.7-0.97l-6.16-18.99l-5.81,20.32h-3.49
				l6.5-23.14c0.25-1.04,0.86-1.56,1.82-1.56h1.41c0.4,0,0.77,0.12,1.08,0.36c0.32,0.24,0.55,0.58,0.7,1.01l6.27,19.45l6.27-19.45
				c0.28-0.91,0.86-1.37,1.75-1.37h1.41c0.96,0,1.57,0.52,1.82,1.56L548.13,319.02z"/>
			<path class="st1" d="M576.51,319.02h-5.2c-1.52,0-2.94-0.26-4.25-0.78c-1.32-0.52-2.46-1.25-3.44-2.2
				c-0.98-0.95-1.73-2.08-2.26-3.4c-0.53-1.32-0.8-2.74-0.8-4.25v-14.06h3.53v13.83c0,2.2,0.69,4,2.07,5.39
				c1.38,1.39,3.12,2.09,5.22,2.09h5.09c1.04,0,2.01-0.18,2.91-0.55c0.9-0.37,1.67-0.88,2.32-1.54c0.65-0.66,1.15-1.46,1.52-2.39
				c0.37-0.94,0.55-1.95,0.55-3.04v-13.79h3.49v14.06c0,1.52-0.27,2.94-0.8,4.25c-0.53,1.32-1.28,2.45-2.24,3.4s-2.11,1.68-3.44,2.2
				C579.46,318.76,578.03,319.02,576.51,319.02z"/>
			<path class="st1" d="M614.5,319.02h-3.49v-21.35h-10.1v-3.34h23.7v3.34h-10.1V319.02z"/>
			<path class="st1" d="M663.36,319.02h-3.84l-2.81-4.98h-15.04l1.56-2.85h11.85l-7.29-12.92l-11.74,20.74h-3.84l13.49-23.67
				c0.18-0.33,0.42-0.58,0.72-0.76c0.3-0.18,0.62-0.27,0.95-0.27h0.83c0.33,0,0.65,0.09,0.95,0.27c0.3,0.18,0.54,0.43,0.72,0.76
				L663.36,319.02z"/>
			<path class="st1" d="M694.28,319.02h-17.44v-24.69h17.51c2.08,0,3.69,0.58,4.84,1.73c1.15,1.15,1.73,2.66,1.73,4.54
				c0,1.32-0.3,2.46-0.89,3.44c-0.6,0.98-1.44,1.63-2.53,1.96c0.58,0.15,1.19,0.45,1.82,0.91c0.63,0.45,1.16,1.15,1.58,2.07
				c0.42,0.93,0.63,1.96,0.63,3.1c0,0.76-0.11,1.54-0.34,2.34c-0.23,0.8-0.62,1.54-1.18,2.22c-0.56,0.68-1.31,1.25-2.26,1.71
				C696.8,318.8,695.65,319.02,694.28,319.02z M694.13,307.67h-11.13v-2.81h10.98c1.04,0,1.89-0.33,2.55-1.01
				c0.66-0.67,0.99-1.54,0.99-2.6c0-1.09-0.33-1.97-0.99-2.64c-0.66-0.67-1.51-1.01-2.55-1.01h-13.64v18.16h13.79
				c1.16,0,2.11-0.37,2.85-1.12s1.1-1.72,1.1-2.91c0-0.56-0.12-1.16-0.36-1.81c-0.24-0.65-0.68-1.18-1.33-1.61
				C695.74,307.88,694.99,307.67,694.13,307.67z"/>
			<path class="st1" d="M736.48,319.02h-20.74v-24.69h3.53v21.31h17.21V319.02z"/>
			<path class="st1" d="M772.95,319.02h-22.64v-24.69h22.6v3.34h-19.11v17.97h19.15V319.02z M772.69,307.93h-16.22v-2.89h16.22
				V307.93z"/>
			<path class="st1" d="M824.35,311.84h-10.18v-3.15h10.22c1.57,0,2.85-0.51,3.84-1.52c0.99-1.01,1.48-2.34,1.48-3.99
				s-0.49-2.98-1.48-3.99s-2.27-1.52-3.84-1.52h-12.73v21.35h-3.49v-24.69h16.18c1.57,0,3.06,0.36,4.48,1.08
				c1.42,0.72,2.5,1.78,3.25,3.17c0.75,1.39,1.12,2.89,1.12,4.48c0,1.27-0.22,2.44-0.67,3.53c-0.44,1.09-1.06,2.03-1.84,2.81
				c-0.79,0.78-1.73,1.39-2.83,1.8C826.76,311.64,825.59,311.84,824.35,311.84z"/>
			<path class="st1" d="M874.08,319.02h-4.56l-5.74-7.33h-10.33v-3.08h10.75c1.54,0,2.81-0.51,3.8-1.52
				c0.99-1.01,1.48-2.33,1.48-3.95c0-1.62-0.49-2.94-1.48-3.95s-2.26-1.52-3.8-1.52h-13.26v21.35h-3.49v-24.69h16.75
				c1.24,0,2.4,0.21,3.48,0.63s2.01,1.01,2.81,1.78c0.8,0.77,1.41,1.7,1.84,2.77c0.43,1.08,0.65,2.24,0.65,3.47
				c0,0.94-0.16,1.94-0.48,3c-0.32,1.06-0.91,2.07-1.78,3.02c-0.87,0.95-1.91,1.65-3.1,2.11L874.08,319.02z"/>
			<path class="st1" d="M902.38,319.02h-3.42c-1.75,0-3.39-0.3-4.92-0.89c-1.53-0.6-2.86-1.44-3.99-2.55c-1.13-1.1-2-2.42-2.62-3.95
				c-0.62-1.53-0.93-3.19-0.93-4.96c0-1.77,0.31-3.42,0.93-4.96c0.62-1.53,1.49-2.85,2.62-3.95c1.13-1.1,2.46-1.95,3.99-2.55
				c1.53-0.59,3.17-0.89,4.92-0.89h3.42c1.75,0,3.39,0.3,4.92,0.89c1.53,0.6,2.85,1.44,3.97,2.53c1.11,1.09,1.98,2.41,2.6,3.95
				c0.62,1.55,0.93,3.2,0.93,4.98c0,1.77-0.31,3.43-0.93,4.98s-1.49,2.86-2.6,3.95c-1.12,1.09-2.44,1.93-3.97,2.53
				C905.77,318.73,904.13,319.02,902.38,319.02z M898.73,315.64h3.84c1.24,0,2.4-0.22,3.48-0.65c1.08-0.43,2.01-1.05,2.79-1.84
				s1.39-1.75,1.82-2.87c0.43-1.11,0.65-2.32,0.65-3.61c0-0.96-0.15-1.96-0.44-3c-0.29-1.04-0.83-2.05-1.63-3.04
				c-0.8-0.99-1.8-1.73-3-2.22c-1.2-0.49-2.43-0.74-3.67-0.74h-3.84c-1.24,0-2.4,0.22-3.48,0.65c-1.08,0.43-2.01,1.05-2.79,1.86
				c-0.79,0.81-1.39,1.77-1.82,2.89c-0.43,1.11-0.65,2.32-0.65,3.61s0.21,2.49,0.65,3.61c0.43,1.11,1.04,2.07,1.82,2.87
				c0.78,0.8,1.71,1.41,2.79,1.84C896.33,315.43,897.49,315.64,898.73,315.64z"/>
			<path class="st1" d="M944.24,319.02h-3.42c-1.75,0-3.39-0.3-4.92-0.89c-1.53-0.6-2.86-1.44-3.99-2.55c-1.13-1.1-2-2.42-2.62-3.95
				c-0.62-1.53-0.93-3.19-0.93-4.96c0-1.77,0.31-3.42,0.93-4.96c0.62-1.53,1.49-2.85,2.62-3.95c1.13-1.1,2.46-1.95,3.99-2.55
				c1.53-0.59,3.17-0.89,4.92-0.89h3.42c1.75,0,3.39,0.3,4.92,0.89c1.53,0.6,2.85,1.44,3.97,2.53c1.11,1.09,1.98,2.41,2.6,3.95
				c0.62,1.55,0.93,3.2,0.93,4.98c0,1.77-0.31,3.43-0.93,4.98c-0.62,1.54-1.49,2.86-2.6,3.95c-1.12,1.09-2.44,1.93-3.97,2.53
				C947.63,318.73,945.99,319.02,944.24,319.02z M940.6,315.64h3.84c1.24,0,2.4-0.22,3.48-0.65c1.08-0.43,2.01-1.05,2.79-1.84
				c0.78-0.8,1.39-1.75,1.82-2.87c0.43-1.11,0.65-2.32,0.65-3.61c0-0.96-0.15-1.96-0.44-3c-0.29-1.04-0.83-2.05-1.63-3.04
				c-0.8-0.99-1.8-1.73-3-2.22c-1.2-0.49-2.43-0.74-3.67-0.74h-3.84c-1.24,0-2.4,0.22-3.48,0.65c-1.08,0.43-2.01,1.05-2.79,1.86
				c-0.79,0.81-1.39,1.77-1.82,2.89c-0.43,1.11-0.65,2.32-0.65,3.61s0.21,2.49,0.65,3.61c0.43,1.11,1.04,2.07,1.82,2.87
				c0.78,0.8,1.71,1.41,2.79,1.84C938.2,315.43,939.35,315.64,940.6,315.64z"/>
			<path class="st1" d="M974.48,319.02h-3.49v-24.69h21.92v3.34h-18.42V319.02z M992.72,308.27h-15.58v-3h15.58V308.27z"/>
			<path class="st1" d="M1043.01,319.02h-3.42c-1.75,0-3.39-0.3-4.92-0.89c-1.53-0.6-2.86-1.44-3.99-2.55
				c-1.13-1.1-2-2.42-2.62-3.95c-0.62-1.53-0.93-3.19-0.93-4.96c0-1.77,0.31-3.42,0.93-4.96c0.62-1.53,1.49-2.85,2.62-3.95
				c1.13-1.1,2.46-1.95,3.99-2.55c1.53-0.59,3.17-0.89,4.92-0.89h3.42c1.75,0,3.39,0.3,4.92,0.89c1.53,0.6,2.85,1.44,3.97,2.53
				c1.11,1.09,1.98,2.41,2.6,3.95c0.62,1.55,0.93,3.2,0.93,4.98c0,1.77-0.31,3.43-0.93,4.98c-0.62,1.54-1.49,2.86-2.6,3.95
				c-1.12,1.09-2.44,1.93-3.97,2.53C1046.4,318.73,1044.76,319.02,1043.01,319.02z M1039.37,315.64h3.84c1.24,0,2.4-0.22,3.48-0.65
				c1.08-0.43,2.01-1.05,2.79-1.84c0.78-0.8,1.39-1.75,1.82-2.87c0.43-1.11,0.65-2.32,0.65-3.61c0-0.96-0.15-1.96-0.44-3
				c-0.29-1.04-0.83-2.05-1.63-3.04c-0.8-0.99-1.8-1.73-3-2.22c-1.2-0.49-2.43-0.74-3.67-0.74h-3.84c-1.24,0-2.4,0.22-3.48,0.65
				c-1.08,0.43-2.01,1.05-2.79,1.86c-0.79,0.81-1.39,1.77-1.82,2.89c-0.43,1.11-0.65,2.32-0.65,3.61s0.21,2.49,0.65,3.61
				c0.43,1.11,1.04,2.07,1.82,2.87c0.78,0.8,1.71,1.41,2.79,1.84C1036.97,315.43,1038.12,315.64,1039.37,315.64z"/>
			<path class="st1" d="M1073.25,319.02h-3.49v-24.69h21.92v3.34h-18.43V319.02z M1091.49,308.27h-15.58v-3h15.58V308.27z"/>
			<path class="st1" d="M1141.78,319.02h-3.42c-1.75,0-3.39-0.3-4.92-0.89c-1.53-0.6-2.86-1.44-3.99-2.55
				c-1.13-1.1-2-2.42-2.62-3.95s-0.93-3.19-0.93-4.96c0-1.77,0.31-3.42,0.93-4.96c0.62-1.53,1.49-2.85,2.62-3.95
				c1.13-1.1,2.46-1.95,3.99-2.55c1.53-0.59,3.17-0.89,4.92-0.89h3.42c1.75,0,3.39,0.3,4.92,0.89c1.53,0.6,2.85,1.44,3.97,2.53
				c1.11,1.09,1.98,2.41,2.6,3.95c0.62,1.55,0.93,3.2,0.93,4.98c0,1.77-0.31,3.43-0.93,4.98c-0.62,1.54-1.49,2.86-2.6,3.95
				c-1.12,1.09-2.44,1.93-3.97,2.53C1145.17,318.73,1143.53,319.02,1141.78,319.02z M1138.14,315.64h3.84c1.24,0,2.4-0.22,3.48-0.65
				c1.08-0.43,2.01-1.05,2.79-1.84s1.39-1.75,1.82-2.87c0.43-1.11,0.65-2.32,0.65-3.61c0-0.96-0.15-1.96-0.44-3
				c-0.29-1.04-0.83-2.05-1.63-3.04c-0.8-0.99-1.8-1.73-3-2.22s-2.43-0.74-3.67-0.74h-3.84c-1.24,0-2.4,0.22-3.48,0.65
				c-1.08,0.43-2.01,1.05-2.79,1.86c-0.79,0.81-1.39,1.77-1.82,2.89c-0.43,1.11-0.65,2.32-0.65,3.61s0.21,2.49,0.65,3.61
				c0.43,1.11,1.04,2.07,1.82,2.87c0.78,0.8,1.71,1.41,2.79,1.84C1135.74,315.43,1136.9,315.64,1138.14,315.64z"/>
			<path class="st1" d="M1193.07,319.02h-1.41c-0.89,0-1.47-0.46-1.75-1.37l-6.27-19.45l-6.27,19.45c-0.15,0.43-0.39,0.77-0.7,1.01
				c-0.32,0.24-0.68,0.36-1.08,0.36h-1.41c-0.96,0-1.57-0.52-1.82-1.56l-6.5-23.14h3.49l5.81,20.21l6.16-18.88
				c0.15-0.4,0.39-0.73,0.7-0.97c0.32-0.24,0.68-0.36,1.08-0.36h1.06c0.4,0,0.76,0.12,1.06,0.36c0.3,0.24,0.53,0.56,0.68,0.97
				l6.19,18.99l5.81-20.32h3.49l-6.53,23.14C1194.64,318.51,1194.03,319.02,1193.07,319.02z"/>
			<path class="st1" d="M1239.26,319.02h-0.76c-0.23,0-0.49-0.04-0.78-0.13c-0.29-0.09-0.69-0.41-1.2-0.97l-18.12-18.88v19.98h-3.42
				v-23.21c0-0.99,0.53-1.48,1.6-1.48h0.87c0.25,0,0.56,0.04,0.91,0.11c0.35,0.08,0.76,0.35,1.22,0.84l17.55,18.27v-19.22h3.38
				v23.36C1240.52,318.58,1240.1,319.02,1239.26,319.02z"/>
			<path class="st1" d="M1278.28,319.02h-22.64v-24.69h22.6v3.34h-19.11v17.97h19.15V319.02z M1278.01,307.93h-16.22v-2.89h16.22
				V307.93z"/>
			<path class="st1" d="M1319.72,319.02h-4.56l-5.74-7.33h-10.33v-3.08h10.75c1.54,0,2.81-0.51,3.8-1.52
				c0.99-1.01,1.48-2.33,1.48-3.95c0-1.62-0.49-2.94-1.48-3.95s-2.26-1.52-3.8-1.52h-13.26v21.35h-3.49v-24.69h16.75
				c1.24,0,2.4,0.21,3.48,0.63c1.08,0.42,2.01,1.01,2.81,1.78c0.8,0.77,1.41,1.7,1.84,2.77c0.43,1.08,0.65,2.24,0.65,3.47
				c0,0.94-0.16,1.94-0.48,3c-0.32,1.06-0.91,2.07-1.78,3.02c-0.87,0.95-1.91,1.65-3.1,2.11L1319.72,319.02z"/>
			<path class="st1" d="M1350.95,319.02h-18.42v-3.38h18.27c1.09,0,1.98-0.35,2.66-1.06c0.68-0.71,1.03-1.65,1.03-2.81
				c0-1.14-0.35-2.06-1.04-2.77c-0.7-0.71-1.58-1.06-2.64-1.06h-11.74c-0.96,0-1.81-0.15-2.55-0.44c-0.73-0.29-1.4-0.68-1.99-1.16
				c-0.6-0.48-1.13-1.17-1.59-2.07c-0.47-0.9-0.7-1.96-0.7-3.17c0-0.73,0.11-1.49,0.34-2.26c0.23-0.77,0.61-1.49,1.16-2.15
				c0.54-0.66,1.27-1.22,2.16-1.67c0.9-0.45,1.96-0.68,3.17-0.68h18.58v3.34h-18.42c-1.04,0-1.88,0.33-2.53,0.99
				c-0.65,0.66-0.97,1.56-0.97,2.7c0,1.12,0.32,2.01,0.97,2.68s1.49,1.01,2.53,1.01h11.74c2.05,0,3.74,0.65,5.05,1.96
				c1.32,1.3,1.98,2.98,1.98,5.03c0,1.01-0.17,1.96-0.51,2.83c-0.34,0.87-0.83,1.62-1.46,2.24c-0.63,0.62-1.39,1.1-2.26,1.42
				C1352.87,318.86,1351.94,319.02,1350.95,319.02z"/>
			<path class="st1" d="M1375.72,319.02h-3.49v-24.69h3.49V319.02z M1396.19,319.02h-3.49v-11.02h-14.32v-3.23h14.32v-10.45h3.49
				V319.02z"/>
			<path class="st1" d="M1414.81,319.02h-3.49v-24.69h3.49V319.02z"/>
			<path class="st1" d="M1446.15,311.84h-10.18v-3.15h10.22c1.57,0,2.85-0.51,3.84-1.52c0.99-1.01,1.48-2.34,1.48-3.99
				s-0.49-2.98-1.48-3.99s-2.27-1.52-3.84-1.52h-12.73v21.35h-3.49v-24.69h16.18c1.57,0,3.06,0.36,4.48,1.08
				c1.42,0.72,2.5,1.78,3.25,3.17c0.75,1.39,1.12,2.89,1.12,4.48c0,1.27-0.22,2.44-0.67,3.53c-0.44,1.09-1.06,2.03-1.84,2.81
				c-0.79,0.78-1.73,1.39-2.83,1.8C1448.56,311.64,1447.39,311.84,1446.15,311.84z"/>
		</g>
	</g>
	<g>
		<g>
			<path class="st2" d="M169.29,212.53c5.77,0,11,2.34,14.79,6.13c3.78,3.78,6.13,9.01,6.13,14.79c0,5.77-2.34,11-6.13,14.79
				c-3.78,3.78-9.01,6.13-14.79,6.13c-5.77,0-11-2.34-14.79-6.13c-3.78-3.78-6.13-9.01-6.13-14.79c0-5.77,2.34-11,6.13-14.79
				C158.29,214.87,163.51,212.53,169.29,212.53L169.29,212.53z M177.77,224.96c-2.17-2.17-5.17-3.51-8.49-3.51
				c-3.32,0-6.32,1.34-8.49,3.51c-2.17,2.17-3.51,5.17-3.51,8.49c0,3.32,1.34,6.32,3.51,8.49c2.17,2.17,5.17,3.51,8.49,3.51
				c3.31,0,6.32-1.34,8.49-3.51c2.17-2.17,3.51-5.17,3.51-8.49C181.29,230.13,179.94,227.13,177.77,224.96L177.77,224.96z"/>
			<path class="st2" d="M169.29,245.44c10.3,0,19.63,4.18,26.39,10.93c4,4,7.09,8.89,8.95,14.36c-2.24,2.45-4.74,4.67-7.44,6.62
				c-1.1-5.67-3.88-10.75-7.81-14.67c-5.14-5.14-12.24-8.32-20.09-8.32c-7.85,0-14.95,3.18-20.09,8.32c-3.93,3.93-6.71,9-7.81,14.67
				c-2.71-1.94-5.2-4.16-7.44-6.62c1.86-5.47,4.95-10.36,8.95-14.36C149.65,249.62,158.98,245.44,169.29,245.44L169.29,245.44z"/>
		</g>
	</g>
</g>
</svg>